HIERARCHY
ROOT Hips
{
	OFFSET 0.00000 0.00000 0.00000
	CHANNELS 6 Xposition Yposition Zposition Yrotation Zrotation Xrotation 
	JOINT Lumbar
	{
		OFFSET 0 0 0
		CHANNELS 3 Zrotation Xrotation Yrotation
		JOINT Neck
		{
			OFFSET 0.00 0.2701 0.00
			CHANNELS 3 Zrotation Xrotation Yrotation
			End Site
			{
				OFFSET 0.00 0.1379 0.00
			}
		}
		JOINT RightShoulder
		{
			OFFSET 0.0119 0.2289 0.1181
			CHANNELS 3 Zrotation Xrotation Yrotation
			JOINT RightElbow
			{
				OFFSET 0.00 -0.1475 0.00
				CHANNELS 2 Zrotation Yrotation
				JOINT RightWrist
				{
					OFFSET 0.00 -0.1605 0.00
					CHANNELS 2 Zrotation Xrotation
					End Site
					{
						OFFSET 0.0040 -0.1068 0.0006
					}
				}
			}
		}
		JOINT LeftShoulder
		{
			OFFSET 0.0119 0.2289 -0.1181
			CHANNELS 3 Zrotation Xrotation Yrotation
			JOINT LeftElbow
			{
				OFFSET 0.00 -0.1475 0.00
				CHANNELS 2 Zrotation Yrotation
				JOINT LeftWrist
				{
					OFFSET 0.00 -0.1605 0.00
					CHANNELS 2 Zrotation Xrotation
					End Site
					{
						OFFSET 0.0040 -0.1068 -0.0006
					}
				}
			}
		}
	}
	JOINT RightHip
	{
		OFFSET 0.0316 -0.0424 0.0458
		CHANNELS 3 Zrotation Xrotation Yrotation
		JOINT RightKnee
		{
			OFFSET 0.00 -0.2438 0.00
			CHANNELS 1 Zrotation
			JOINT RightAnkle
			{
				OFFSET 0.00 -0.2449 0.00
				CHANNELS 3 Zrotation Xrotation Yrotation
				End Site
				{
					OFFSET 0.1237 -0.0542 0.0051
				}
			}
		}
	}
	JOINT LeftHip
	{
		OFFSET 0.0316 -0.0424 -0.0458
		CHANNELS 3 Zrotation Xrotation Yrotation
		JOINT LeftKnee
		{
			OFFSET 0.00 -0.2438 0.00
			CHANNELS 1 Zrotation
			JOINT LeftAnkle
			{
				OFFSET 0.00 -0.2449 0.00
				CHANNELS 3 Zrotation Xrotation Yrotation
				End Site
				{
					OFFSET 0.1237 -0.0542 -0.0051
				}
			}
		}
	}
}
MOTION
Frames: 26
Frame Time: 0.02
-0 0.57926 -0 178.5946 0 -3.38295 3.66937 3.58731 -2.37284 -21.76204 1.55459 3.36316 -14.95631 -70.71645 -87.14614 16.67751 44.67138 -27.92531 2.90863 21.36327 71.9496 65.91723 18.46696 -90.10553 -23.82508 4.3781 -4.89037 7.3206 -9.99675 -7.02591 1.58058 -3.78272 -8.31112 -2.96152 2.59452 6.31279 -5.0791 5.72537 4.69366 8.07268
9e-05 0.57926 9e-05 178.60835 0 -3.39044 3.66681 3.58018 -2.28169 -22.05797 1.60067 3.28144 -15.44171 -70.76988 -86.76294 16.61033 44.26948 -28.02254 3.02008 21.31539 71.85998 66.27131 18.46 -90.01305 -23.7611 4.38452 -4.88819 7.32711 -9.92965 -7.01069 1.5705 -3.79154 -8.38953 -2.95345 2.59299 6.27916 -5.07372 5.7287 4.71771 8.09258
0.00018 0.57927 0.00018 178.62198 0 -3.3979 3.66441 3.57299 -2.19105 -22.35453 1.64649 3.20025 -15.92359 -70.82277 -86.38321 16.5442 43.8692 -28.11948 3.13094 21.26867 71.77078 66.62482 18.45308 -89.92115 -23.69773 4.39078 -4.88591 7.33386 -9.85821 -6.99564 1.56026 -3.80011 -8.47219 -2.9454 2.59147 6.2458 -5.06841 5.73203 4.74158 8.11233
0.00028 0.57927 0.00028 178.63525 0 -3.40529 3.66248 3.56564 -2.1014 -22.65415 1.69178 3.12004 -16.39776 -70.87412 -86.01235 16.48156 43.47026 -28.21613 3.24085 21.22437 71.68268 66.97962 18.44588 -89.83074 -23.63626 4.3965 -4.88324 7.3424 -9.75603 -6.98105 1.54864 -3.80741 -8.58542 -2.9373 2.58994 6.21312 -5.06333 5.73537 4.76493 8.13163
0.00037 0.57927 0.00037 178.65045 0 -3.41305 3.65784 3.55929 -2.00633 -22.93478 1.73999 3.03422 -16.91477 -70.93369 -85.593 16.40037 43.06276 -28.31423 3.35619 21.16518 71.5891 67.32773 18.43971 -89.73251 -23.56484 4.40512 -4.88265 7.34241 -9.80147 -6.96391 1.54359 -3.82098 -8.55199 -2.92944 2.58845 6.17674 -5.05702 5.73862 4.79097 8.15327
0.00046 0.57927 0.00046 178.66152 0 -3.42002 3.65911 3.55075 -1.92293 -23.25718 1.78189 2.96061 -17.3393 -70.97577 -85.27763 16.35852 42.67479 -28.40923 3.45963 21.13894 71.50696 67.68955 18.43166 -89.65088 -23.51447 4.40758 -4.87766 7.35982 -9.54495 -6.95228 1.52516 -3.82161 -8.81845 -2.92108 2.58689 6.14828 -5.05334 5.74208 4.81132 8.16995
0.00054 0.57928 0.00053 178.66127 0 -3.42487 3.67588 3.53619 -1.86974 -23.69203 1.80753 2.91792 -17.52208 -70.96953 -85.24195 16.42801 42.32272 -28.49751 3.53455 21.19423 71.45737 68.10173 18.41534 -89.61466 -23.52336 4.39259 -4.85989 7.43318 -8.3271 -6.95535 1.46334 -3.78232 -10.04099 -2.91123 2.5851 6.14122 -5.05698 5.74629 4.81583 8.17294
0.00061 0.57929 0.00059 178.65682 0 -3.42894 3.69876 3.51938 -1.82871 -24.16992 1.82656 2.88804 -17.6091 -70.94563 -85.31207 16.53672 41.99299 -28.58235 3.59683 21.28437 71.41912 68.52594 18.39761 -89.59507 -23.55325 4.37142 -4.83779 7.52285 -6.82475 -6.96408 1.38903 -3.73064 -11.54586 -2.90089 2.58326 6.14221 -5.06329 5.75071 4.81463 8.17095
0.00068 0.57929 0.00065 178.65422 0 -3.43335 3.71943 3.50352 -1.78328 -24.63073 1.84795 2.85402 -17.73141 -70.92986 -85.33925 16.62592 41.66473 -28.66782 3.66206 21.36513 71.37498 68.93706 18.3826 -89.56834 -23.57287 4.35339 -4.81806 7.5999 -5.53615 -6.97061 1.32466 -3.68738 -12.83765 -2.89088 2.58146 6.13986 -5.06832 5.75494 4.81615 8.17124
0.00076 0.5793 0.00072 178.65187 0 -3.4378 3.73783 3.48795 -1.73282 -25.08159 1.87226 2.81282 -17.88879 -70.91371 -85.34682 16.72252 41.28871 -28.75762 3.73874 21.41961 71.33389 69.38028 18.35909 -89.5406 -23.59577 4.33406 -4.79662 7.6985 -3.89838 -6.97564 1.24273 -3.63255 -14.47992 -2.88046 2.57958 6.13627 -5.07357 5.75954 4.81714 8.1714
0.00083 0.57931 0.00078 178.64799 0 -3.44197 3.76224 3.47126 -1.69605 -25.56265 1.88865 2.78971 -17.94988 -70.89406 -85.41777 16.81265 41.01588 -28.8371 3.789 21.53585 71.28919 69.7595 18.3526 -89.51799 -23.61656 4.31585 -4.77772 7.75664 -2.91128 -6.98503 1.19389 -3.59862 -15.46827 -2.87073 2.57786 6.13706 -5.07905 5.76343 4.81786 8.17074
0.00089 0.57931 0.00083 178.64112 0 -3.44558 3.8031 3.45179 -1.69121 -26.12329 1.88703 2.81266 -17.77188 -70.86988 -85.66065 16.87834 41.03677 -28.89281 3.76502 21.82519 71.23103 69.95933 18.39629 -89.5136 -23.62872 4.30327 -4.7669 7.69428 -3.86798 -7.00625 1.24375 -3.62757 -14.50439 -2.8633 2.57665 6.14886 -5.08402 5.76525 4.81943 8.16834
0.00094 0.57931 0.00088 178.63284 0 -3.44892 3.84956 3.43132 -1.70024 -26.71159 1.87727 2.85351 -17.49886 -70.84263 -85.95999 16.93547 41.15865 -28.93738 3.71532 22.17363 71.16884 70.09431 18.45658 -89.51252 -23.63763 4.29188 -4.75879 7.5915 -5.47513 -7.03148 1.32657 -3.67756 -12.88686 -2.8565 2.5756 6.16463 -5.08922 5.76635 4.8209 8.16542
0.00099 0.57931 0.00092 178.62507 0 -3.45235 3.89258 3.41146 -1.70484 -27.28283 1.86972 2.88667 -17.26819 -70.81624 -86.21775 16.9947 41.22415 -28.98472 3.68076 22.48745 71.10911 70.25881 18.50748 -89.5043 -23.64645 4.27921 -4.74948 7.51038 -6.7332 -7.05407 1.39147 -3.71653 -11.61985 -2.84923 2.57444 6.178 -5.09465 5.76782 4.82228 8.1632
0.00104 0.57931 0.00097 178.61768 0 -3.45586 3.93956 3.39083 -1.70205 -27.87452 1.8681 2.91844 -17.04101 -70.79149 -86.54393 17.06336 41.33218 -29.04226 3.63277 22.83435 71.04766 70.42347 18.56635 -89.51947 -23.66247 4.26926 -4.73995 7.41603 -8.20576 -7.08018 1.46823 -3.76127 -10.13831 -2.84278 2.57342 6.19415 -5.09876 5.76913 4.82398 8.15886
0.0011 0.57931 0.00102 178.60923 0 -3.45918 3.97955 3.37163 -1.71766 -28.42963 1.85244 2.95715 -16.7811 -70.76282 -86.74272 17.10919 41.37845 -29.07516 3.60482 23.12709 70.988 70.57229 18.61227 -89.48771 -23.66264 4.25427 -4.73146 7.33934 -9.39147 -7.09999 1.52844 -3.79909 -8.94299 -2.83471 2.57216 6.20535 -5.10565 5.77059 4.82513 8.15888
0.00116 0.57931 0.00107 178.59804 0 -3.4618 3.99873 3.35639 -1.78155 -28.87628 1.79878 3.01076 -16.48901 -70.72359 -86.54859 17.1002 41.20511 -29.04916 3.6559 23.24543 70.93966 70.69278 18.62108 -89.31496 -23.61804 4.22288 -4.72626 7.32203 -9.61223 -7.09996 1.53357 -3.8132 -8.7114 -2.82246 2.56996 6.20188 -5.11992 5.77269 4.82414 8.17108
0.00122 0.57932 0.00112 178.58584 0 -3.46427 4.01062 3.34271 -1.86315 -29.28488 1.73154 3.07055 -16.16058 -70.68023 -86.22859 17.06759 40.97223 -28.99736 3.72513 23.30878 70.89188 70.79959 18.61584 -89.09674 -23.55792 4.18681 -4.72184 7.32368 -9.52575 -7.09366 1.5212 -3.81961 -8.78656 -2.80846 2.56754 6.1933 -5.13697 5.77495 4.82275 8.18769
0.00129 0.57933 0.00117 178.57424 0 -3.46696 4.02595 3.32846 -1.93614 -29.71135 1.67136 3.12751 -15.82716 -70.6398 -85.98395 17.04104 40.78034 -28.95342 3.77432 23.40422 70.84065 70.91287 18.6152 -88.90618 -23.50586 4.15438 -4.71638 7.31612 -9.5905 -7.09116 1.51776 -3.8292 -8.71093 -2.79494 2.56536 6.18698 -5.15288 5.77707 4.82201 8.2023
0.00134 0.57933 0.00122 178.56214 0 -3.46901 4.04111 3.31349 -2.01241 -30.13714 1.60715 3.18565 -15.58378 -70.59678 -85.66583 17.03227 40.52635 -28.92622 3.87118 23.47267 70.80408 71.02279 18.62245 -88.68622 -23.44905 4.11569 -4.71389 7.30971 -9.62919 -7.08483 1.51135 -3.84071 -8.66041 -2.78275 2.5626 6.18086 -5.16837 5.77942 4.81931 8.21691
0.00142 0.57934 0.00127 178.5507 0 -3.47237 4.05462 3.30052 -2.08536 -30.55399 1.54824 3.24201 -15.14219 -70.55573 -85.46868 16.98309 40.3948 -28.85715 3.87491 23.5824 70.73553 71.13737 18.61 -88.51662 -23.39898 4.0888 -4.70536 7.30591 -9.64021 -7.08487 1.50651 -3.8463 -8.63931 -2.76741 2.56098 6.1733 -5.18529 5.7814 4.82056 8.23253
0.00156 0.57934 0.00132 178.54275 0 -3.47942 4.06678 3.29186 -2.14911 -30.96294 1.50683 3.29672 -14.18974 -70.54174 -85.64816 16.80997 40.54299 -28.68703 3.60352 23.82922 70.59157 71.26733 18.54375 -88.49894 -23.36721 4.09681 -4.67994 7.30491 -9.65175 -7.10455 1.51046 -3.83591 -8.62398 -2.7434 2.56282 6.16109 -5.20631 5.78189 4.83335 8.25042
0.00173 0.57934 0.00138 178.53522 0 -3.48779 4.07716 3.28538 -2.20805 -31.36243 1.47127 3.34848 -13.03387 -70.52547 -85.95112 16.60043 40.83008 -28.47378 3.24004 24.1177 70.41238 71.40256 18.45843 -88.53413 -23.34358 4.11679 -4.64837 7.30603 -9.64241 -7.13075 1.51645 -3.82 -8.63103 -2.71633 2.56578 6.14795 -5.22854 5.78213 4.85006 8.2691
0.00189 0.57935 0.00144 178.52666 0 -3.4955 4.08746 3.27843 -2.26629 -31.76148 1.43347 3.39831 -11.95418 -70.49744 -86.18963 16.41952 41.10021 -28.27542 2.92818 24.38009 70.24161 71.53673 18.38389 -88.54275 -23.31889 4.13032 -4.61964 7.30623 -9.63828 -7.15354 1.52116 -3.80751 -8.63131 -2.69094 2.56807 6.13645 -5.24963 5.78268 4.86463 8.28706
0.00205 0.57935 0.00149 178.52178 0 -3.50344 4.1015 3.26918 -2.3373 -32.1802 1.39377 3.46203 -10.94395 -70.52562 -86.45942 16.18684 41.17125 -28.0977 2.57729 24.66951 70.10549 71.66625 18.30073 -88.55659 -23.2824 4.14727 -4.59088 7.30691 -9.64212 -7.17788 1.52653 -3.79095 -8.6274 -2.66435 2.57105 6.11958 -5.27321 5.78221 4.88065 8.30664
0.00222 0.57935 0.00155 178.50913 0 -3.51126 4.10713 3.26542 -2.3804 -32.55498 1.35916 3.49622 -9.73854 -70.43333 -86.69448 16.0536 41.69345 -27.86501 2.2836 24.91489 69.88556 71.80502 18.2302 -88.57762 -23.27277 4.16083 -4.56054 7.30685 -9.62806 -7.20076 1.53151 -3.78163 -8.63378 -2.63943 2.57286 6.11381 -5.29198 5.78407 4.89465 8.32303
